<svg width="173" height="120" viewBox="0 0 173 120" fill="none" xmlns="http://www.w3.org/2000/svg">
<g filter="url(#filter0_d)">
<path d="M48.9259 10.9856H31.991V81.9521H48.9259V10.9856Z" fill="url(#paint0_linear)"/>
<path d="M88.0569 10.9856H45.1887V81.9521H88.0569V10.9856Z" fill="url(#paint1_linear)"/>
<path d="M46.2329 10.9856H44.1445V81.9521H46.2329V10.9856Z" fill="#99C6FF"/>
<path d="M41.5033 10.9856H39.4149V81.9521H41.5033V10.9856Z" fill="#99C6FF"/>
<path d="M36.7737 10.9856H34.6852V81.9521H36.7737V10.9856Z" fill="#99C6FF"/>
<path d="M53.5518 21.0878C55.9113 21.0878 57.8241 19.0922 57.8241 16.6306C57.8241 14.169 55.9113 12.1735 53.5518 12.1735C51.1923 12.1735 49.2795 14.169 49.2795 16.6306C49.2795 19.0922 51.1923 21.0878 53.5518 21.0878Z" fill="url(#paint2_linear)"/>
<path d="M68.0235 21.0878C70.383 21.0878 72.2958 19.0922 72.2958 16.6306C72.2958 14.169 70.383 12.1735 68.0235 12.1735C65.6639 12.1735 63.7512 14.169 63.7512 16.6306C63.7512 19.0922 65.6639 21.0878 68.0235 21.0878Z" fill="url(#paint3_linear)"/>
<path d="M86.7675 16.6306C86.7675 19.0922 84.8547 21.0878 82.4952 21.0878C80.1357 21.0878 78.2229 19.0922 78.2229 16.6306C78.2229 14.169 80.1357 12.1735 82.4952 12.1735C84.8547 12.1735 86.7675 14.169 86.7675 16.6306Z" fill="url(#paint4_linear)"/>
<path d="M75.465 2.32715C70.6871 2.32715 66.7448 6.12895 66.271 10.9857H70.5869C71.0289 8.59545 73.0466 6.78431 75.465 6.78431C78.2064 6.78431 80.4362 9.11064 80.4362 11.9706V16.215C80.4362 17.4458 81.3932 18.443 82.5718 18.443C83.7516 18.443 84.7074 17.4446 84.7074 16.215V11.9706C84.7074 6.65151 80.5612 2.32715 75.465 2.32715Z" fill="url(#paint5_linear)"/>
<path d="M60.9933 2.32715C56.2154 2.32715 52.2731 6.12895 51.7993 10.9857H56.1152C56.5572 8.59545 58.5749 6.78431 60.9933 6.78431C63.7347 6.78431 65.9646 9.11064 65.9646 11.9706V16.215C65.9646 17.4458 66.9216 18.443 68.1001 18.443C69.2799 18.443 70.2357 17.4446 70.2357 16.215V11.9706C70.2357 6.65151 66.0895 2.32715 60.9933 2.32715Z" fill="url(#paint6_linear)"/>
<path d="M46.5205 2.32715C41.7425 2.32715 37.8002 6.12895 37.3264 10.9857H41.6424C42.0843 8.59545 44.102 6.78431 46.5205 6.78431C49.2618 6.78431 51.4917 9.11064 51.4917 11.9706V16.215C51.4917 17.4458 52.4487 18.443 53.6273 18.443C54.807 18.443 55.7628 17.4446 55.7628 16.215V11.9706C55.764 6.65151 51.6178 2.32715 46.5205 2.32715Z" fill="url(#paint7_linear)"/>
<path d="M82.3879 33.9194C82.3879 35.1416 81.438 36.1326 80.2665 36.1326H53.9196C52.7481 36.1326 51.7981 35.1416 51.7981 33.9194C51.7981 32.6972 52.7481 31.7062 53.9196 31.7062H80.2665C81.438 31.7062 82.3879 32.6972 82.3879 33.9194Z" fill="url(#paint8_linear)"/>
<path d="M82.3879 41.7075C82.3879 42.9297 81.438 43.9207 80.2665 43.9207H53.9196C52.7481 43.9207 51.7981 42.9297 51.7981 41.7075C51.7981 40.4853 52.7481 39.4943 53.9196 39.4943H80.2665C81.438 39.4943 82.3879 40.4841 82.3879 41.7075Z" fill="url(#paint9_linear)"/>
<path d="M118.958 103.934L106.759 98.8955L129.823 38.1207L142.023 43.1595L118.958 103.934Z" fill="url(#paint10_linear)"/>
<path opacity="0.5" d="M131.938 38.9902L108.875 99.7662L110.127 100.284L133.19 39.5075L131.938 38.9902Z" fill="white"/>
<path opacity="0.5" d="M135.308 40.3797L112.239 101.156L113.491 101.673L136.56 40.8972L135.308 40.3797Z" fill="white"/>
<path opacity="0.5" d="M138.652 41.7637L115.589 102.54L116.842 103.057L139.905 42.2811L138.652 41.7637Z" fill="white"/>
<path d="M105.727 101.608L104.533 104.754C104.054 106.018 104.646 107.448 105.858 107.949L113.672 111.176C114.884 111.677 116.254 111.058 116.734 109.794L117.928 106.648L105.727 101.608Z" fill="url(#paint11_linear)"/>
<path d="M117.928 106.648L105.728 101.608L106.758 98.8955L118.958 103.934L117.928 106.648Z" fill="url(#paint12_linear)"/>
<path opacity="0.5" d="M106.366 99.9261L106.136 100.531L118.336 105.57L118.566 104.965L106.366 99.9261Z" fill="white"/>
<path d="M142.034 43.1619L129.823 38.1183L136.187 32.332L140.608 28.3101L141.192 34.3988L142.034 43.1619Z" fill="#DFE9FF"/>
<path d="M141.192 34.3988C140.295 34.4456 139.367 34.2956 138.476 33.9279C137.585 33.5603 136.811 33.007 136.187 32.332L140.608 28.3101L141.192 34.3988Z" fill="url(#paint13_linear)"/>
<path d="M17.5383 46.9368C17.5383 49.2299 15.7563 51.0902 13.5571 51.0902C11.3578 51.0902 9.57584 49.2311 9.57584 46.9368C9.57584 44.6424 11.3578 42.7833 13.5571 42.7833C15.7563 42.7833 17.5383 44.6437 17.5383 46.9368Z" fill="url(#paint14_linear)"/>
<path d="M20.1146 94.7876V87.0204C15.4545 87.0204 11.6772 83.0797 11.6772 78.218C11.6772 73.3563 15.4545 69.4156 20.1146 69.4156V61.6484C11.3437 61.6484 4.23334 69.0664 4.23334 78.2168C4.23216 87.3696 11.3425 94.7876 20.1146 94.7876Z" fill="url(#paint15_linear)"/>
<path d="M4 1.84753V9.84091C8.79561 9.84091 12.6837 13.8972 12.6837 18.9003C12.6837 23.9034 8.79561 27.9597 4 27.9597V35.9531C13.0279 35.9531 20.3456 28.3175 20.3456 18.9003C20.3468 9.4831 13.0279 1.84753 4 1.84753Z" fill="url(#paint16_linear)"/>
<path d="M131.136 15.8829C133.729 15.8829 135.83 13.6903 135.83 10.9856C135.83 8.28087 133.729 6.08826 131.136 6.08826C128.543 6.08826 126.442 8.28087 126.442 10.9856C126.442 13.6903 128.543 15.8829 131.136 15.8829Z" fill="url(#paint17_linear)"/>
<path d="M159.093 0.649902C153.622 0.649902 149.186 5.27674 149.186 10.9856C149.186 16.6932 153.621 21.3213 159.093 21.3213C164.564 21.3213 169 16.6944 169 10.9856C169 5.27674 164.565 0.649902 159.093 0.649902ZM159.093 16.5666C156.138 16.5666 153.743 14.0681 153.743 10.9856C153.743 7.90308 156.138 5.40461 159.093 5.40461C162.048 5.40461 164.442 7.90308 164.442 10.9856C164.444 14.0681 162.048 16.5666 159.093 16.5666Z" fill="url(#paint18_linear)"/>
<path d="M150.832 28.1504V36.2298C155.68 36.2298 159.61 40.3292 159.61 45.3876C159.61 50.4448 155.681 54.5454 150.832 54.5454V62.6248C159.958 62.6248 167.355 54.9069 167.355 45.3876C167.355 35.8683 159.958 28.1504 150.832 28.1504Z" fill="url(#paint19_linear)"/>
<path d="M159.093 86.4279C162.578 86.4279 165.403 83.4805 165.403 79.8448C165.403 76.2091 162.578 73.2617 159.093 73.2617C155.608 73.2617 152.783 76.2091 152.783 79.8448C152.783 83.4805 155.608 86.4279 159.093 86.4279Z" fill="url(#paint20_linear)"/>
<path d="M67.3517 46.1843L84.7816 53.2235L90.1371 38.7922L72.706 31.7529L67.3517 46.1843Z" fill="url(#paint21_linear)"/>
<path d="M116.664 56.4722L97.4702 108.2L59.407 92.8266C54.9167 91.013 52.6786 85.7284 54.4169 81.045L70.4597 37.8124L116.664 56.4722Z" fill="url(#paint22_linear)"/>
<path d="M75.8787 42.2523L113.05 57.2652L118.707 42.0187L81.5359 27.007L74.3313 33.1966L75.8787 42.2523Z" fill="#DDECFF"/>
<path d="M76.357 29.7521L75.8724 31.0582L116.661 47.5303L117.146 46.2242L76.357 29.7521Z" fill="#99C6FF"/>
<path d="M75.2593 32.7102L74.7747 34.0162L115.564 50.4883L116.048 49.1822L75.2593 32.7102Z" fill="#99C6FF"/>
<path d="M74.1611 35.6693L73.6765 36.9753L114.465 53.4474L114.95 52.1413L74.1611 35.6693Z" fill="#99C6FF"/>
<path d="M77.1457 45.0187L115.211 60.3919L116.666 56.4721L78.6001 41.0977C76.1828 40.1214 74.9771 37.275 75.9129 34.7531L76.5599 33.0108C77.4957 30.489 80.2241 29.2312 82.6414 30.2074L120.707 45.5806L122.161 41.6608L84.0957 26.2876C79.6066 24.474 74.5399 26.8102 72.8015 31.4936L72.1544 33.2358C70.4184 37.9192 72.6565 43.2051 77.1457 45.0187Z" fill="url(#paint23_linear)"/>
<path d="M97.6953 43.2788L102.361 45.1637L103.839 41.1787L99.1744 39.295L97.6953 43.2788Z" fill="url(#paint24_linear)"/>
<path d="M85.127 40.103L89.061 41.6915L91.1259 36.1266L87.1918 34.538L85.127 40.103Z" fill="url(#paint25_linear)"/>
<g opacity="0.4">
<path opacity="0.4" d="M70.6942 59.0739C71.3424 59.3358 72.0707 59.0001 72.3218 58.3239C72.5728 57.6476 72.2511 56.8878 71.6028 56.6259C70.9546 56.364 70.2263 56.6996 69.9752 57.3759C69.7242 58.0522 70.0459 58.8133 70.6942 59.0739Z" fill="#372779"/>
<path opacity="0.4" d="M70.5586 61.56C70.7401 61.0719 70.5068 60.5223 70.0389 60.3342C69.571 60.1448 69.0454 60.3883 68.8639 60.8764C68.6824 61.3645 68.9145 61.9129 69.3836 62.1023C69.8515 62.2916 70.3771 62.0482 70.5586 61.56Z" fill="#372779"/>
<path opacity="0.4" d="M71.769 60.7203C71.5321 61.3584 71.8362 62.0765 72.4479 62.3236C73.0595 62.5707 73.7478 62.2535 73.9847 61.6154C74.2216 60.9772 73.9175 60.2592 73.3059 60.012C72.6942 59.7649 72.0059 60.0821 71.769 60.7203Z" fill="#372779"/>
<path opacity="0.4" d="M73.5605 57.6131C73.4426 57.9328 73.5935 58.2906 73.8999 58.4147C74.2064 58.5377 74.5505 58.3791 74.6684 58.0606C74.7862 57.7409 74.6354 57.3819 74.3289 57.259C74.0225 57.1348 73.6784 57.2934 73.5605 57.6131Z" fill="#372779"/>
<path opacity="0.4" d="M71.234 63.4756C71.0725 63.4104 70.8898 63.494 70.8274 63.6637C70.7649 63.8322 70.845 64.0228 71.0077 64.0879C71.1691 64.1531 71.3518 64.0695 71.4143 63.901C71.4767 63.7301 71.3966 63.5408 71.234 63.4756Z" fill="#372779"/>
<path opacity="0.4" d="M68.6635 64.5478C69.1679 64.7507 69.7336 64.49 69.9293 63.9637C70.1237 63.4375 69.8739 62.8473 69.3706 62.6432C68.8662 62.4391 68.3005 62.701 68.1049 63.226C67.9092 63.7535 68.1591 64.3437 68.6635 64.5478Z" fill="#372779"/>
<path opacity="0.4" d="M70.4266 66.863C70.5728 66.4683 70.3854 66.0257 70.0071 65.8732C69.6287 65.7207 69.2045 65.9162 69.0583 66.3109C68.9122 66.7056 69.0996 67.1483 69.4779 67.3007C69.8562 67.4532 70.2805 67.2577 70.4266 66.863Z" fill="#372779"/>
<path opacity="0.4" d="M72.8498 65.8868C73.0513 65.3421 72.792 64.7298 72.2711 64.5196C71.749 64.3093 71.162 64.5798 70.9605 65.1233C70.759 65.668 71.0183 66.2803 71.5392 66.4905C72.0613 66.702 72.6482 66.4315 72.8498 65.8868Z" fill="#372779"/>
<path opacity="0.4" d="M65.756 59.734C65.6063 60.1385 65.7984 60.5946 66.1873 60.7508C66.5751 60.9069 67.0123 60.7065 67.162 60.3008C67.3129 59.8963 67.1196 59.4401 66.7318 59.2839C66.3429 59.1278 65.9068 59.3294 65.756 59.734Z" fill="#372779"/>
<path opacity="0.4" d="M73.2611 63.6688C73.1845 63.8753 73.2823 64.1077 73.4803 64.1876C73.6783 64.2676 73.9011 64.1655 73.9777 63.9589C74.0543 63.7524 73.9565 63.52 73.7585 63.4401C73.5605 63.3589 73.3377 63.4622 73.2611 63.6688Z" fill="#372779"/>
<path opacity="0.4" d="M77.8634 71.6644C77.6654 71.5845 77.4427 71.6865 77.3661 71.8931C77.2895 72.0997 77.3873 72.3321 77.5853 72.412C77.7833 72.4919 78.006 72.3899 78.0826 72.1833C78.1593 71.9767 78.0614 71.7443 77.8634 71.6644Z" fill="#372779"/>
<path opacity="0.4" d="M75.1386 60.8308C75.6242 61.0276 76.171 60.7755 76.3596 60.2677C76.5482 59.7611 76.3066 59.1906 75.8198 58.9939C75.3342 58.7971 74.7874 59.0492 74.5988 59.557C74.4114 60.0636 74.653 60.6341 75.1386 60.8308Z" fill="#372779"/>
<path opacity="0.4" d="M77.3318 68.0483C77.5204 67.5418 77.2788 66.9712 76.7921 66.7745C76.3065 66.5778 75.7596 66.8298 75.5711 67.3377C75.3825 67.8442 75.6241 68.4148 76.1108 68.6103C76.5964 68.807 77.1433 68.5562 77.3318 68.0483Z" fill="#372779"/>
<path opacity="0.4" d="M76.6271 56.8187C77.095 57.008 77.6206 56.7646 77.8021 56.2765C77.9836 55.7883 77.7503 55.2399 77.2824 55.0506C76.8145 54.8612 76.2888 55.1047 76.1073 55.5928C75.927 56.081 76.1592 56.6293 76.6271 56.8187Z" fill="#372779"/>
<path opacity="0.4" d="M82.8465 54.9045C83.3143 55.0939 83.84 54.8504 84.0215 54.3623C84.203 53.8741 83.9696 53.3258 83.5017 53.1364C83.0338 52.947 82.5082 53.1905 82.3267 53.6786C82.1452 54.1668 82.3786 54.7152 82.8465 54.9045Z" fill="#372779"/>
<path opacity="0.4" d="M73.5782 56.252C74.0284 56.434 74.534 56.2004 74.7084 55.7307C74.7544 55.6077 74.7709 55.4798 74.765 55.3569C74.8286 55.368 74.8934 55.3335 74.9182 55.2684C74.9465 55.1934 74.9099 55.1085 74.838 55.0802C74.7944 55.063 74.7497 55.0716 74.7131 55.0962C74.6306 54.8565 74.4562 54.6524 74.2099 54.5528C73.7596 54.3708 73.254 54.6044 73.0796 55.0741C72.904 55.5426 73.1279 56.07 73.5782 56.252Z" fill="#372779"/>
<path opacity="0.4" d="M72.0436 68.7663C72.2039 68.3347 71.9977 67.8491 71.584 67.6818C71.1703 67.5146 70.7048 67.7298 70.5445 68.1614C70.3842 68.5929 70.5905 69.0786 71.0041 69.2458C71.4178 69.4131 71.8834 69.1991 72.0436 68.7663Z" fill="#372779"/>
<path opacity="0.4" d="M72.95 70.9699C73.1102 70.5383 72.904 70.0527 72.4903 69.8855C72.0766 69.7182 71.6111 69.9334 71.4508 70.365C71.2905 70.7966 71.4968 71.2822 71.9105 71.4494C72.3241 71.6167 72.7897 71.4015 72.95 70.9699Z" fill="#372779"/>
<path opacity="0.4" d="M76.3537 70.0771C75.94 69.9099 75.4745 70.1251 75.3142 70.5566C75.1539 70.9882 75.3602 71.4739 75.7738 71.6411C76.1875 71.8083 76.6531 71.5932 76.8133 71.1616C76.9736 70.73 76.7674 70.2443 76.3537 70.0771Z" fill="#372779"/>
<path opacity="0.4" d="M66.5055 65.6764C67.1479 65.9358 67.8703 65.6026 68.119 64.9325C68.3677 64.2624 68.0483 63.5086 67.406 63.2492C66.7637 62.9898 66.0412 63.323 65.7925 63.9931C65.5438 64.6632 65.862 65.4169 66.5055 65.6764Z" fill="#372779"/>
<path opacity="0.4" d="M74.1427 69.0677C73.8009 68.93 73.4167 69.1071 73.2835 69.4636C73.1515 69.8202 73.3212 70.221 73.663 70.36C74.0048 70.4977 74.389 70.3206 74.5222 69.9641C74.6554 69.6063 74.4845 69.2054 74.1427 69.0677Z" fill="#372779"/>
<path opacity="0.4" d="M74.627 66.4486C74.3925 66.354 74.1297 66.4757 74.0389 66.7191C73.9482 66.9626 74.0649 67.238 74.2982 67.3327C74.5327 67.4274 74.7956 67.3056 74.8863 67.0622C74.9782 66.8175 74.8616 66.5433 74.627 66.4486Z" fill="#372779"/>
<path opacity="0.4" d="M68.5444 69.8163C68.8096 69.1032 68.469 68.3003 67.7854 68.0248C67.1019 67.7482 66.3322 68.1035 66.0682 68.8167C65.8031 69.5298 66.1437 70.3327 66.8272 70.6081C67.5108 70.8836 68.2792 70.5295 68.5444 69.8163Z" fill="#372779"/>
<path opacity="0.4" d="M74.9253 63.3245C74.8074 63.6442 74.9583 64.0032 75.2647 64.1262C75.5711 64.2491 75.9153 64.0918 76.0331 63.7721C76.151 63.4524 76.0001 63.0933 75.6937 62.9704C75.3873 62.8462 75.0431 63.0048 74.9253 63.3245Z" fill="#372779"/>
<path opacity="0.4" d="M64.2851 69.2571C64.4607 68.7825 64.2356 68.2489 63.7807 68.0644C63.3257 67.8812 62.8142 68.1161 62.6375 68.5919C62.4619 69.0665 62.687 69.6001 63.1431 69.7846C63.5968 69.9678 64.1083 69.7329 64.2851 69.2571Z" fill="#372779"/>
<path opacity="0.4" d="M68.5268 55.272C68.7024 54.7974 68.4773 54.2638 68.0223 54.0793C67.5674 53.8961 67.0559 54.131 66.8791 54.6056C66.7035 55.0802 66.9286 55.6138 67.3847 55.7983C67.8385 55.9827 68.3512 55.7466 68.5268 55.272Z" fill="#372779"/>
<path opacity="0.4" d="M75.7266 95.3434C75.2717 95.1602 74.7602 95.395 74.5834 95.8696C74.4078 96.3442 74.6329 96.8779 75.0879 97.0623C75.5428 97.2455 76.0543 97.0106 76.2311 96.536C76.4079 96.0614 76.1816 95.5266 75.7266 95.3434Z" fill="#372779"/>
<path opacity="0.4" d="M90.7004 100.81C90.1111 100.573 89.4488 100.878 89.2213 101.491C88.9939 102.106 89.2862 102.797 89.8743 103.034C90.4635 103.272 91.1259 102.967 91.3534 102.353C91.582 101.738 91.2885 101.047 90.7004 100.81Z" fill="#372779"/>
<path opacity="0.4" d="M78.4303 54.8885C78.6106 54.961 78.8122 54.8676 78.8829 54.6807C78.9524 54.4926 78.8628 54.2823 78.6837 54.2098C78.5034 54.1372 78.3018 54.2307 78.2311 54.4176C78.1604 54.6045 78.25 54.816 78.4303 54.8885Z" fill="#372779"/>
<path opacity="0.4" d="M76.1522 61.2784C76.8004 61.5403 77.5288 61.2046 77.7798 60.5284C78.0308 59.8521 77.7091 59.0922 77.0609 58.8303C76.4127 58.5684 75.6843 58.9041 75.4333 59.5804C75.1822 60.2566 75.504 61.0165 76.1522 61.2784Z" fill="#372779"/>
<path opacity="0.4" d="M76.0166 63.7645C76.1981 63.2764 75.9648 62.728 75.4969 62.5386C75.029 62.3493 74.5022 62.5927 74.3218 63.0809C74.1403 63.569 74.3725 64.1174 74.8416 64.3067C75.3095 64.4961 75.8351 64.2526 76.0166 63.7645Z" fill="#372779"/>
<path opacity="0.4" d="M77.227 62.9248C76.9901 63.563 77.2942 64.281 77.9058 64.5282C78.5175 64.7753 79.2058 64.4581 79.4427 63.82C79.6796 63.1818 79.3755 62.4638 78.7638 62.2166C78.1522 61.9695 77.4639 62.2867 77.227 62.9248Z" fill="#372779"/>
<path opacity="0.4" d="M79.0184 59.8165C78.8993 60.1362 79.0514 60.494 79.3578 60.6182C79.6642 60.7412 80.0072 60.5825 80.1262 60.2641C80.2453 59.9444 80.0932 59.5854 79.7868 59.4624C79.4804 59.3395 79.1362 59.4981 79.0184 59.8165Z" fill="#372779"/>
<path opacity="0.4" d="M76.6919 65.6802C76.5305 65.615 76.3478 65.6986 76.2853 65.8683C76.2229 66.0368 76.303 66.2274 76.4657 66.2925C76.6283 66.3577 76.8098 66.2741 76.8723 66.1056C76.9347 65.9347 76.8546 65.7454 76.6919 65.6802Z" fill="#372779"/>
<path opacity="0.4" d="M74.1215 66.7525C74.6259 66.9566 75.1916 66.6947 75.3873 66.1697C75.5829 65.6434 75.3319 65.0532 74.8286 64.8491C74.3242 64.645 73.7585 64.9069 73.5628 65.4319C73.3672 65.957 73.617 66.5484 74.1215 66.7525Z" fill="#372779"/>
<path opacity="0.4" d="M75.8846 69.0675C76.0308 68.6728 75.8434 68.2301 75.4651 68.0777C75.0867 67.9252 74.6625 68.1207 74.5163 68.5154C74.3702 68.9101 74.5576 69.3527 74.9359 69.5052C75.3142 69.6577 75.7385 69.4609 75.8846 69.0675Z" fill="#372779"/>
<path opacity="0.4" d="M78.3077 68.0914C78.5093 67.5467 78.25 66.9344 77.729 66.7241C77.2069 66.5139 76.62 66.7844 76.4185 67.3279C76.2169 67.8725 76.4762 68.4849 76.9972 68.6951C77.5193 68.9066 78.1062 68.6361 78.3077 68.0914Z" fill="#372779"/>
<path opacity="0.4" d="M70.9924 65.4884C70.891 65.7602 71.0207 66.0663 71.2823 66.1721C71.5428 66.2778 71.8362 66.1426 71.9376 65.8696C72.0389 65.5979 71.9093 65.2917 71.6477 65.186C71.3872 65.0814 71.0937 65.2167 70.9924 65.4884Z" fill="#372779"/>
<path opacity="0.4" d="M78.7191 65.8732C78.6425 66.0798 78.7403 66.3122 78.9383 66.3921C79.1363 66.472 79.3591 66.37 79.4357 66.1634C79.5123 65.9568 79.4145 65.7245 79.2165 65.6445C79.0185 65.5634 78.7957 65.6667 78.7191 65.8732Z" fill="#372779"/>
<path opacity="0.4" d="M83.3214 73.869C83.1234 73.7891 82.9007 73.8911 82.8241 74.0977C82.7474 74.3043 82.8453 74.5367 83.0433 74.6166C83.2413 74.6965 83.464 74.5945 83.5406 74.3879C83.6172 74.1813 83.5194 73.9489 83.3214 73.869Z" fill="#372779"/>
<path opacity="0.4" d="M80.5965 63.0342C81.0821 63.2309 81.6289 62.9789 81.8175 62.4711C82.0061 61.9645 81.7645 61.394 81.2777 61.1985C80.7921 61.0017 80.2453 61.2538 80.0579 61.7616C79.8693 62.2682 80.1109 62.8387 80.5965 63.0342Z" fill="#372779"/>
<path opacity="0.4" d="M82.7899 70.253C82.9785 69.7465 82.7368 69.176 82.2501 68.9792C81.7645 68.7825 81.2177 69.0345 81.0291 69.5424C80.8405 70.0489 81.0821 70.6195 81.5689 70.8162C82.0545 71.0117 82.6013 70.7596 82.7899 70.253Z" fill="#372779"/>
<path opacity="0.4" d="M82.0851 59.0235C82.553 59.2129 83.0786 58.9694 83.2601 58.4813C83.4416 57.9932 83.2082 57.4448 82.7404 57.2554C82.2725 57.0661 81.7468 57.3095 81.5653 57.7977C81.385 58.2846 81.6172 58.8342 82.0851 59.0235Z" fill="#372779"/>
<path opacity="0.4" d="M79.0361 58.4553C79.4863 58.6372 79.992 58.4036 80.1664 57.9339C80.2123 57.811 80.2288 57.6831 80.223 57.5601C80.2866 57.5712 80.3514 57.5368 80.3762 57.4716C80.4044 57.3966 80.3679 57.3118 80.296 57.2835C80.2524 57.2663 80.2076 57.2749 80.1711 57.2995C80.0886 57.0597 79.9142 56.8556 79.6678 56.756C79.2176 56.574 78.712 56.8076 78.5376 57.2773C78.362 57.7458 78.5859 58.2745 79.0361 58.4553Z" fill="#372779"/>
<path opacity="0.4" d="M77.5016 70.971C77.6619 70.5394 77.4568 70.0538 77.042 69.8865C76.6283 69.7193 76.1628 69.9345 76.0025 70.3661C75.8422 70.7977 76.0484 71.2833 76.4621 71.4506C76.8758 71.6178 77.3413 71.4026 77.5016 70.971Z" fill="#372779"/>
<path opacity="0.4" d="M78.4079 73.1744C78.5682 72.7428 78.3632 72.2571 77.9483 72.0899C77.5346 71.9227 77.0691 72.1379 76.9088 72.5694C76.7485 73.001 76.9548 73.4867 77.3684 73.6539C77.7821 73.8211 78.2476 73.606 78.4079 73.1744Z" fill="#372779"/>
<path opacity="0.4" d="M81.8117 72.2816C81.398 72.1143 80.9325 72.3295 80.7722 72.7611C80.6119 73.1927 80.8181 73.6783 81.2318 73.8456C81.6455 74.0128 82.111 73.7976 82.2713 73.366C82.4316 72.9345 82.2253 72.4488 81.8117 72.2816Z" fill="#372779"/>
<path opacity="0.4" d="M71.4968 69.4845C71.9281 69.6591 72.4149 69.4354 72.581 68.9841C72.7484 68.5341 72.5339 68.0263 72.1014 67.8529C71.67 67.6783 71.1833 67.9021 71.0171 68.3533C70.8497 68.8034 71.0642 69.3099 71.4968 69.4845Z" fill="#372779"/>
<path opacity="0.4" d="M79.6006 71.2724C79.2589 71.1347 78.8746 71.3118 78.7415 71.6683C78.6095 72.0249 78.7792 72.4257 79.121 72.5647C79.4627 72.7024 79.847 72.5253 79.9801 72.1688C80.1133 71.811 79.9424 71.4101 79.6006 71.2724Z" fill="#372779"/>
<path opacity="0.4" d="M80.0862 68.6532C79.8529 68.5586 79.5889 68.6803 79.4981 68.9237C79.4074 69.1684 79.524 69.4426 79.7574 69.5373C79.9919 69.632 80.2548 69.5102 80.3455 69.2668C80.4363 69.0221 80.3196 68.7479 80.0862 68.6532Z" fill="#372779"/>
<path opacity="0.4" d="M74.0024 72.0211C74.2676 71.308 73.927 70.5051 73.2434 70.2297C72.5598 69.953 71.7902 70.3084 71.5262 71.0215C71.261 71.7347 71.6016 72.5376 72.2852 72.813C72.9688 73.0884 73.7372 72.7343 74.0024 72.0211Z" fill="#372779"/>
<path opacity="0.4" d="M67.01 67.7115C67.1985 67.205 66.9569 66.6344 66.4702 66.4377C65.9846 66.241 65.4378 66.4931 65.2492 67.0009C65.0606 67.5074 65.3022 68.078 65.789 68.2747C66.2757 68.4702 66.8214 68.2181 67.01 67.7115Z" fill="#372779"/>
<path opacity="0.4" d="M61.7229 68.4295C61.8832 67.9979 61.6769 67.5123 61.2633 67.345C60.8496 67.1778 60.3841 67.393 60.2238 67.8246C60.0635 68.2562 60.2697 68.7418 60.6834 68.9091C61.0971 69.0763 61.5626 68.8611 61.7229 68.4295Z" fill="#372779"/>
<path opacity="0.4" d="M62.6281 70.6329C62.7884 70.2013 62.5821 69.7156 62.1684 69.5484C61.7547 69.3812 61.2892 69.5964 61.1289 70.0279C60.9686 70.4595 61.1749 70.9452 61.5886 71.1124C62.0034 71.2796 62.4678 71.0645 62.6281 70.6329Z" fill="#372779"/>
<path opacity="0.4" d="M63.822 68.7296C63.4802 68.5919 63.096 68.7689 62.9628 69.1255C62.8308 69.4821 63.0005 69.8829 63.3423 70.0218C63.6841 70.1596 64.0683 69.9825 64.2015 69.6259C64.3335 69.2693 64.1637 68.8685 63.822 68.7296Z" fill="#372779"/>
<path opacity="0.4" d="M64.3064 66.1105C64.073 66.0158 63.809 66.1376 63.7183 66.381C63.6275 66.6245 63.7442 66.8999 63.9776 66.9946C64.2109 67.0892 64.4749 66.9675 64.5657 66.7241C64.6564 66.4794 64.5409 66.2052 64.3064 66.1105Z" fill="#372779"/>
<path opacity="0.4" d="M63.7995 66.4142C64.3039 66.6171 64.8696 66.3564 65.0653 65.8302C65.2597 65.3039 65.0099 64.7137 64.5066 64.5096C64.0022 64.3068 63.4365 64.5674 63.2408 65.0925C63.0452 65.6199 63.2962 66.2114 63.7995 66.4142Z" fill="#372779"/>
<path opacity="0.4" d="M65.5638 68.7295C65.71 68.3348 65.5226 67.8921 65.1443 67.7397C64.7659 67.5872 64.3417 67.7827 64.1955 68.1774C64.0494 68.5721 64.2368 69.0147 64.6151 69.1672C64.9922 69.3196 65.4177 69.1241 65.5638 68.7295Z" fill="#372779"/>
<path opacity="0.4" d="M61.1749 69.1464C61.6074 69.321 62.093 69.0972 62.2603 68.646C62.4277 68.196 62.2132 67.6881 61.7807 67.5148C61.3493 67.3402 60.8626 67.564 60.6964 68.0152C60.5278 68.4652 60.7435 68.9718 61.1749 69.1464Z" fill="#372779"/>
<path opacity="0.4" d="M63.6806 71.683C63.9457 70.9699 63.6051 70.167 62.9216 69.8915C62.238 69.6149 61.4684 69.9702 61.2032 70.6834C60.938 71.3965 61.2786 72.1994 61.9622 72.4748C62.6469 72.7515 63.4166 72.3962 63.6806 71.683Z" fill="#372779"/>
<path opacity="0.4" d="M80.3832 65.5289C80.2642 65.8485 80.4162 66.2076 80.7226 66.3305C81.029 66.4547 81.3732 66.2961 81.491 65.9764C81.6089 65.6567 81.458 65.2977 81.1516 65.1747C80.8452 65.0506 80.5022 65.2092 80.3832 65.5289Z" fill="#372779"/>
<path opacity="0.4" d="M70.0035 71.8907C70.1226 71.571 69.9705 71.212 69.6641 71.089C69.3577 70.9661 69.0135 71.1235 68.8957 71.4431C68.7778 71.7628 68.9287 72.1219 69.2351 72.2448C69.5415 72.369 69.8845 72.2104 70.0035 71.8907Z" fill="#372779"/>
<path opacity="0.4" d="M72.8557 62.4882C72.9735 62.1685 72.8227 61.8095 72.5162 61.6866C72.2098 61.5636 71.8657 61.721 71.7478 62.0407C71.63 62.3604 71.7808 62.7194 72.0872 62.8423C72.3937 62.9665 72.7366 62.8079 72.8557 62.4882Z" fill="#372779"/>
<path opacity="0.4" d="M75.227 51.2291C75.8752 51.491 76.6035 51.1553 76.8546 50.479C77.1056 49.8028 76.7839 49.0429 76.1356 48.781C75.4874 48.5191 74.7591 48.8548 74.508 49.531C74.257 50.2073 74.5788 50.9672 75.227 51.2291Z" fill="#372779"/>
<path opacity="0.4" d="M75.0914 53.7154C75.2729 53.2273 75.0395 52.6789 74.5716 52.4895C74.1038 52.3002 73.5781 52.5437 73.3966 53.0318C73.2151 53.5199 73.4485 54.0683 73.9164 54.2577C74.3843 54.4458 74.9099 54.2036 75.0914 53.7154Z" fill="#372779"/>
<path opacity="0.4" d="M103.412 54.4236C103.311 54.6954 103.441 55.0003 103.701 55.106C103.962 55.2106 104.254 55.0765 104.355 54.8048C104.457 54.5331 104.327 54.2281 104.067 54.1224C103.806 54.0179 103.513 54.1519 103.412 54.4236Z" fill="#372779"/>
<path opacity="0.4" d="M89.4488 50.4841C89.3309 50.8037 89.4818 51.1615 89.7882 51.2857C90.0947 51.4087 90.4376 51.2501 90.5567 50.9316C90.6757 50.6119 90.5237 50.2529 90.2172 50.1299C89.9108 50.0058 89.5678 50.1644 89.4488 50.4841Z" fill="#372779"/>
<path opacity="0.4" d="M75.7668 55.6298C75.6053 55.5646 75.4226 55.6482 75.3602 55.8179C75.2977 55.9864 75.3778 56.1769 75.5405 56.2421C75.7019 56.3073 75.8846 56.2237 75.9471 56.054C76.0095 55.8855 75.9294 55.6962 75.7668 55.6298Z" fill="#372779"/>
<path opacity="0.4" d="M73.1962 56.7032C73.7007 56.9073 74.2664 56.6454 74.462 56.1204C74.6565 55.5941 74.4066 55.0039 73.9022 54.7998C73.3978 54.5957 72.8321 54.8576 72.6364 55.3826C72.4419 55.9076 72.6918 56.4991 73.1962 56.7032Z" fill="#372779"/>
<path opacity="0.4" d="M70.2888 51.8894C70.1379 52.2939 70.3312 52.7501 70.7201 52.9062C71.1079 53.0636 71.5451 52.862 71.6948 52.4574C71.8445 52.0529 71.6524 51.5968 71.2646 51.4406C70.8757 51.2832 70.4396 51.4849 70.2888 51.8894Z" fill="#372779"/>
<path opacity="0.4" d="M77.7939 55.823C77.7173 56.0296 77.8151 56.262 78.0131 56.3419C78.2111 56.4218 78.4338 56.3198 78.5104 56.1132C78.587 55.9066 78.4892 55.6742 78.2912 55.5943C78.0932 55.5144 77.8705 55.6177 77.7939 55.823Z" fill="#372779"/>
<path opacity="0.4" d="M105.537 57.8414C106.023 58.0382 106.57 57.7861 106.758 57.2783C106.947 56.7717 106.705 56.2012 106.219 56.0057C105.733 55.809 105.186 56.061 104.998 56.5688C104.81 57.0754 105.052 57.6447 105.537 57.8414Z" fill="#372779"/>
<path opacity="0.4" d="M92.5166 49.6898C92.9845 49.8791 93.5101 49.6357 93.6916 49.1475C93.8731 48.6594 93.6409 48.111 93.1719 47.9217C92.704 47.7323 92.1783 47.9758 91.9968 48.4639C91.8153 48.952 92.0487 49.5004 92.5166 49.6898Z" fill="#372779"/>
<path opacity="0.4" d="M89.4665 49.1231C89.9167 49.3051 90.4223 49.0715 90.5967 48.6018C90.6427 48.4788 90.6592 48.3509 90.6533 48.228C90.717 48.239 90.7818 48.2046 90.8065 48.1395C90.8348 48.0644 90.7983 47.9796 90.7264 47.9513C90.6828 47.9341 90.638 47.9427 90.6015 47.9673C90.519 47.7276 90.3445 47.5234 90.0982 47.4239C89.648 47.2419 89.1424 47.4755 88.968 47.9452C88.7935 48.4136 89.0163 48.9411 89.4665 49.1231Z" fill="#372779"/>
<path opacity="0.4" d="M79.458 55.4785C79.3402 55.7982 79.491 56.156 79.7975 56.2802C80.1039 56.4031 80.448 56.2445 80.5659 55.9261C80.6849 55.6064 80.5329 55.2474 80.2264 55.1244C79.92 55.0014 79.5759 55.1601 79.458 55.4785Z" fill="#372779"/>
<path opacity="0.4" d="M79.3213 52.4637C79.4969 51.989 79.2718 51.4554 78.8169 51.271C78.3619 51.0878 77.8504 51.3226 77.6737 51.7972C77.498 52.2718 77.7232 52.8055 78.1793 52.9899C78.633 53.1743 79.1457 52.9383 79.3213 52.4637Z" fill="#372779"/>
<path opacity="0.4" d="M87.0162 47.8836C87.1918 47.409 86.9667 46.8753 86.5118 46.6909C86.0569 46.5077 85.5454 46.7425 85.3686 47.2171C85.193 47.6918 85.4181 48.2254 85.873 48.4098C86.3291 48.5943 86.8406 48.3582 87.0162 47.8836Z" fill="#372779"/>
<path opacity="0.4" d="M79.656 76.8729C80.3042 77.1348 81.0326 76.7991 81.2836 76.1228C81.5346 75.4466 81.2129 74.6867 80.5647 74.4248C79.9165 74.1629 79.1881 74.4986 78.9371 75.1748C78.6872 75.8511 79.009 76.611 79.656 76.8729Z" fill="#372779"/>
<path opacity="0.4" d="M80.5494 55.92C80.7309 55.4319 80.4975 54.8823 80.0296 54.6941C79.5617 54.5048 79.0361 54.7482 78.8546 55.2364C78.6731 55.7245 78.9053 56.2729 79.3743 56.4622C79.8422 56.6504 80.3679 56.4081 80.5494 55.92Z" fill="#372779"/>
<path opacity="0.4" d="M100.01 52.7169C99.7731 53.355 100.077 54.0731 100.689 54.3202C101.301 54.5674 101.989 54.2501 102.226 53.612C102.463 52.9739 102.159 52.2558 101.547 52.0087C100.935 51.7603 100.247 52.0775 100.01 52.7169Z" fill="#372779"/>
<path opacity="0.4" d="M84.2925 50.9034C84.0556 51.5415 84.3597 52.2596 84.9714 52.5067C85.5831 52.7538 86.2714 52.4366 86.5083 51.7985C86.7452 51.1603 86.4411 50.4423 85.8294 50.1951C85.2177 49.948 84.5294 50.2652 84.2925 50.9034Z" fill="#372779"/>
<path opacity="0.4" d="M94.9068 52.6888C94.7889 53.0084 94.9398 53.3675 95.2462 53.4904C95.5526 53.6146 95.8968 53.4548 96.0146 53.1363C96.1325 52.8166 95.9816 52.4576 95.6752 52.3346C95.37 52.2105 95.0258 52.3691 94.9068 52.6888Z" fill="#372779"/>
<path opacity="0.4" d="M81.2247 57.8344C81.0633 57.7692 80.8806 57.8528 80.8181 58.0213C80.7557 58.1897 80.8358 58.3803 80.9985 58.4455C81.1599 58.5106 81.3426 58.427 81.4051 58.2574C81.4675 58.0901 81.3874 57.8996 81.2247 57.8344Z" fill="#372779"/>
<path opacity="0.4" d="M78.6542 58.9078C79.1586 59.1106 79.7244 58.85 79.92 58.3237C80.1156 57.7975 79.8646 57.2073 79.3614 57.0032C78.8569 56.8003 78.2912 57.061 78.0956 57.586C77.8999 58.1122 78.1498 58.7037 78.6542 58.9078Z" fill="#372779"/>
<path opacity="0.4" d="M78.8275 49.0479C79.3319 49.252 79.8976 48.9901 80.0933 48.4651C80.2889 47.9388 80.0379 47.3487 79.5346 47.1445C79.0302 46.9404 78.4645 47.2023 78.2689 47.7274C78.0732 48.2536 78.3243 48.845 78.8275 49.0479Z" fill="#372779"/>
<path opacity="0.4" d="M83.2519 58.0275C83.1752 58.2341 83.2731 58.4665 83.4711 58.5464C83.6691 58.6263 83.8918 58.5243 83.9684 58.3177C84.045 58.1111 83.9472 57.8787 83.7492 57.7988C83.5512 57.7189 83.3285 57.821 83.2519 58.0275Z" fill="#372779"/>
<path opacity="0.4" d="M96.4861 55.9065C96.9716 56.1032 97.5185 55.8512 97.7071 55.3434C97.8956 54.8368 97.654 54.2663 97.1673 54.0696C96.6817 53.8728 96.1348 54.1249 95.9463 54.6327C95.7589 55.1393 95.9993 55.7098 96.4861 55.9065Z" fill="#372779"/>
<path opacity="0.4" d="M80.3585 49.5679C80.1216 50.206 80.4256 50.9241 81.0373 51.1713C81.649 51.4184 82.3373 51.1012 82.5742 50.463C82.8111 49.8249 82.507 49.1068 81.8953 48.8597C81.2836 48.6125 80.5954 48.9298 80.3585 49.5679Z" fill="#372779"/>
<path opacity="0.4" d="M82.1487 46.461C82.0308 46.7807 82.1817 47.1385 82.4881 47.2626C82.7946 47.3856 83.1387 47.227 83.2566 46.9085C83.3744 46.5889 83.2236 46.2298 82.9171 46.1069C82.6119 45.9827 82.2677 46.1413 82.1487 46.461Z" fill="#372779"/>
<path opacity="0.4" d="M83.728 49.6789C84.2136 49.8756 84.7604 49.6235 84.949 49.1157C85.1376 48.6091 84.896 48.0386 84.4092 47.8419C83.9236 47.6452 83.3768 47.8972 83.1882 48.405C83.0008 48.9128 83.2424 49.4821 83.728 49.6789Z" fill="#372779"/>
<path opacity="0.4" d="M97.9746 51.8944C98.4425 52.0837 98.9681 51.8403 99.1496 51.3521C99.3311 50.864 99.0978 50.3156 98.6299 50.1263C98.162 49.9369 97.6363 50.1804 97.4548 50.6685C97.2745 51.1566 97.5067 51.705 97.9746 51.8944Z" fill="#372779"/>
<path opacity="0.4" d="M94.9244 51.3276C95.3747 51.5096 95.8803 51.2759 96.0547 50.8062C96.1007 50.6833 96.1172 50.5554 96.1113 50.4312C96.1749 50.4423 96.2397 50.4079 96.2645 50.3427C96.2928 50.2677 96.2562 50.1829 96.1843 50.1546C96.1407 50.1374 96.0959 50.146 96.0594 50.1706C95.9769 49.9308 95.8025 49.7267 95.5562 49.6271C95.1059 49.4451 94.6003 49.6787 94.4259 50.1484C94.2515 50.6181 94.4754 51.1456 94.9244 51.3276Z" fill="#372779"/>
<path opacity="0.4" d="M84.916 57.6831C84.7981 58.0028 84.949 58.3618 85.2554 58.4848C85.5619 58.6077 85.906 58.4503 86.0239 58.1307C86.1417 57.811 85.9909 57.4519 85.6844 57.329C85.378 57.206 85.035 57.3646 84.916 57.6831Z" fill="#372779"/>
<path opacity="0.4" d="M77.3885 54.6436C77.5064 54.3239 77.3543 53.9649 77.0491 53.842C76.7427 53.719 76.3985 53.8764 76.2806 54.1961C76.1616 54.5158 76.3136 54.8748 76.6201 54.9977C76.9265 55.1207 77.2695 54.9621 77.3885 54.6436Z" fill="#372779"/>
<path opacity="0.4" d="M83.8882 57.093C84.0686 57.1655 84.2701 57.0721 84.3408 56.8852C84.4103 56.697 84.3208 56.4868 84.1416 56.4142C83.9613 56.3417 83.7598 56.4351 83.6891 56.622C83.6183 56.8089 83.7079 57.0204 83.8882 57.093Z" fill="#372779"/>
<path opacity="0.4" d="M74.4008 41.8709C74.8687 42.0603 75.3944 41.8168 75.5759 41.3287C75.7574 40.8406 75.524 40.2922 75.0561 40.1028C74.5882 39.9135 74.0626 40.1569 73.8811 40.6451C73.7007 41.1332 73.9329 41.6816 74.4008 41.8709Z" fill="#372779"/>
<path opacity="0.4" d="M73.6406 45.99C74.1085 46.1793 74.6341 45.9359 74.8156 45.4477C74.9971 44.9596 74.7638 44.4112 74.2959 44.2218C73.828 44.0325 73.3024 44.276 73.1209 44.7641C72.9405 45.2522 73.1727 45.8006 73.6406 45.99Z" fill="#372779"/>
<path opacity="0.4" d="M70.5905 45.4232C71.0407 45.6051 71.5463 45.3715 71.7207 44.9018C71.7667 44.7789 71.7832 44.651 71.7773 44.528C71.8409 44.5391 71.9057 44.5047 71.9293 44.4395C71.9576 44.3645 71.9211 44.2797 71.8492 44.2514C71.8056 44.2342 71.7608 44.2428 71.7242 44.2674C71.6417 44.0276 71.4673 43.8235 71.221 43.7239C70.7708 43.5419 70.2652 43.7755 70.0907 44.2452C69.9175 44.7137 70.1414 45.2412 70.5905 45.4232Z" fill="#372779"/>
<path opacity="0.4" d="M71.0136 42.4463C70.8946 42.766 71.0466 43.1251 71.353 43.248C71.6595 43.371 72.0036 43.2136 72.1215 42.8939C72.2393 42.5742 72.0885 42.2152 71.7821 42.0922C71.4756 41.968 71.1315 42.1266 71.0136 42.4463Z" fill="#372779"/>
<path opacity="0.4" d="M72.1049 42.8866C72.2864 42.3984 72.0531 41.8488 71.5852 41.6607C71.1173 41.4713 70.5905 41.7148 70.4102 42.2029C70.2287 42.6911 70.4608 43.2394 70.9299 43.4288C71.3966 43.6182 71.9234 43.3747 72.1049 42.8866Z" fill="#372779"/>
<path opacity="0.4" d="M72.7802 44.8024C72.6188 44.7372 72.4361 44.8208 72.3736 44.9905C72.3112 45.159 72.3913 45.3495 72.5539 45.4147C72.7154 45.4799 72.8981 45.3963 72.9606 45.2278C73.023 45.0569 72.9429 44.8676 72.7802 44.8024Z" fill="#372779"/>
<path opacity="0.4" d="M70.2086 45.8746C70.713 46.0774 71.2788 45.8168 71.4744 45.2918C71.67 44.7655 71.419 44.1753 70.9158 43.9712C70.4113 43.7671 69.8456 44.029 69.65 44.554C69.4543 45.079 69.7054 45.6705 70.2086 45.8746Z" fill="#372779"/>
<path opacity="0.4" d="M74.8074 44.9953C74.7308 45.2019 74.8286 45.4343 75.0266 45.5142C75.2246 45.5941 75.4474 45.492 75.524 45.2855C75.6006 45.0789 75.5028 44.8465 75.3048 44.7666C75.1068 44.6855 74.884 44.7887 74.8074 44.9953Z" fill="#372779"/>
<path opacity="0.4" d="M76.4715 44.651C76.3525 44.9707 76.5045 45.3298 76.8109 45.4527C77.1174 45.5757 77.4615 45.4183 77.5794 45.0986C77.6972 44.7789 77.5464 44.4199 77.2399 44.2969C76.9335 44.1727 76.5894 44.3314 76.4715 44.651Z" fill="#372779"/>
<path opacity="0.4" d="M75.4438 44.0596C75.6241 44.1322 75.8257 44.0387 75.8964 43.8518C75.9671 43.665 75.8763 43.4535 75.6972 43.3797C75.5169 43.3072 75.3153 43.4006 75.2446 43.5875C75.1739 43.7756 75.2635 43.9871 75.4438 44.0596Z" fill="#372779"/>
<path opacity="0.4" d="M66.7719 53.4202C67.4201 53.6821 68.1485 53.3465 68.3995 52.6702C68.6506 51.9939 68.3288 51.2341 67.6806 50.9722C67.0324 50.7103 66.304 51.046 66.053 51.7222C65.802 52.3985 66.1237 53.1583 66.7719 53.4202Z" fill="#372779"/>
<path opacity="0.4" d="M66.6364 55.9065C66.8179 55.4183 66.5845 54.8699 66.1166 54.6806C65.6487 54.4912 65.1231 54.7347 64.9416 55.2228C64.7601 55.711 64.9934 56.2593 65.4613 56.4487C65.9292 56.6368 66.4549 56.3946 66.6364 55.9065Z" fill="#372779"/>
<path opacity="0.4" d="M67.8467 55.0666C67.6098 55.7047 67.9139 56.4228 68.5256 56.6699C69.1372 56.9171 69.8255 56.5998 70.0624 55.9617C70.2993 55.3235 69.9952 54.6055 69.3836 54.3583C68.7719 54.1112 68.0836 54.4284 67.8467 55.0666Z" fill="#372779"/>
<path opacity="0.4" d="M69.6382 51.9584C69.5203 52.2781 69.6712 52.6371 69.9776 52.7601C70.2841 52.8843 70.6282 52.7244 70.7461 52.406C70.8639 52.0863 70.7131 51.7272 70.4066 51.6043C70.1002 51.4813 69.7561 51.6387 69.6382 51.9584Z" fill="#372779"/>
<path opacity="0.4" d="M67.3117 57.8208C67.1502 57.7557 66.9675 57.8393 66.9051 58.0089C66.8426 58.1774 66.9227 58.368 67.0854 58.4331C67.2468 58.4983 67.4295 58.4147 67.492 58.245C67.5544 58.0766 67.4743 57.8872 67.3117 57.8208Z" fill="#372779"/>
<path opacity="0.4" d="M64.7412 58.8943C65.2456 59.0984 65.8113 58.8365 66.007 58.3115C66.2026 57.7853 65.9516 57.1951 65.4483 56.991C64.9439 56.7869 64.3782 57.0488 64.1826 57.5738C63.9869 58.0988 64.2368 58.6902 64.7412 58.8943Z" fill="#372779"/>
<path opacity="0.4" d="M66.5044 61.2096C66.6505 60.8149 66.4631 60.3722 66.0848 60.2198C65.7065 60.0673 65.2822 60.2628 65.1361 60.6575C64.9899 61.0522 65.1773 61.4948 65.5556 61.6473C65.934 61.7997 66.3582 61.603 66.5044 61.2096Z" fill="#372779"/>
<path opacity="0.4" d="M68.9275 60.2334C69.1291 59.6887 68.8698 59.0764 68.3489 58.8661C67.8268 58.6559 67.2398 58.9264 67.0383 59.4698C66.8368 60.0145 67.096 60.6268 67.617 60.8371C68.1391 61.0486 68.726 60.7781 68.9275 60.2334Z" fill="#372779"/>
<path opacity="0.4" d="M69.3388 58.014C69.2622 58.2205 69.36 58.4529 69.558 58.5328C69.756 58.6128 69.9788 58.5107 70.0554 58.3041C70.132 58.0976 70.0342 57.8652 69.8362 57.7853C69.6382 57.7053 69.4154 57.8074 69.3388 58.014Z" fill="#372779"/>
<path opacity="0.4" d="M73.9411 66.011C73.7431 65.9311 73.5204 66.0331 73.4438 66.2397C73.3672 66.4462 73.465 66.6786 73.663 66.7585C73.861 66.8385 74.0837 66.7364 74.1603 66.5298C74.237 66.322 74.1391 66.0909 73.9411 66.011Z" fill="#372779"/>
<path opacity="0.4" d="M71.2163 55.1762C71.7019 55.3729 72.2487 55.1208 72.4361 54.613C72.6247 54.1065 72.3831 53.5359 71.8975 53.3392C71.4119 53.1425 70.8651 53.3945 70.6765 53.9023C70.4891 54.4102 70.7307 54.9794 71.2163 55.1762Z" fill="#372779"/>
<path opacity="0.4" d="M73.4096 62.3948C73.5982 61.8882 73.3566 61.3177 72.8698 61.1209C72.3843 60.9242 71.8374 61.1763 71.6488 61.6841C71.4603 62.1907 71.7019 62.7612 72.1886 62.9579C72.6742 63.1534 73.2211 62.9013 73.4096 62.3948Z" fill="#372779"/>
<path opacity="0.4" d="M72.7048 51.1639C73.1727 51.3533 73.6983 51.1098 73.8798 50.6217C74.0613 50.1335 73.828 49.5852 73.3601 49.3958C72.8922 49.2064 72.3654 49.4499 72.185 49.938C72.0047 50.4262 72.2369 50.9758 72.7048 51.1639Z" fill="#372779"/>
<path opacity="0.4" d="M78.9241 49.2497C79.392 49.4391 79.9177 49.1956 80.0992 48.7075C80.2807 48.2193 80.0485 47.671 79.5794 47.4816C79.1115 47.2923 78.5859 47.5357 78.4044 48.0238C78.2229 48.512 78.4562 49.0616 78.9241 49.2497Z" fill="#372779"/>
<path opacity="0.4" d="M69.6558 50.5972C70.1061 50.7792 70.6117 50.5456 70.7861 50.0759C70.8321 49.9529 70.8486 49.8251 70.8427 49.7021C70.9063 49.7132 70.9711 49.6787 70.9959 49.6136C71.0242 49.5386 70.9876 49.4537 70.9157 49.4255C70.8721 49.4082 70.8273 49.4168 70.7908 49.4414C70.7083 49.2017 70.5339 48.9976 70.2876 48.898C69.8374 48.716 69.3317 48.9496 69.1573 49.4193C68.9817 49.8878 69.2056 50.4153 69.6558 50.5972Z" fill="#372779"/>
<path opacity="0.4" d="M68.1214 63.1129C68.2816 62.6813 68.0754 62.1956 67.6617 62.0284C67.248 61.8612 66.7825 62.0764 66.6222 62.5079C66.4619 62.9395 66.6682 63.4252 67.0818 63.5924C67.4955 63.7596 67.9611 63.5444 68.1214 63.1129Z" fill="#372779"/>
<path opacity="0.4" d="M69.0277 65.3161C69.188 64.8845 68.9818 64.3989 68.5681 64.2316C68.1544 64.0644 67.6889 64.2796 67.5286 64.7112C67.3683 65.1427 67.5745 65.6284 67.9882 65.7956C68.4019 65.9629 68.8674 65.7477 69.0277 65.3161Z" fill="#372779"/>
<path opacity="0.4" d="M72.4314 64.4235C72.0177 64.2563 71.5522 64.4715 71.3919 64.9031C71.2316 65.3346 71.4367 65.8203 71.8515 65.9875C72.2652 66.1548 72.7308 65.9396 72.8911 65.508C73.0513 65.0764 72.8451 64.5908 72.4314 64.4235Z" fill="#372779"/>
<path opacity="0.4" d="M59.0393 74.2589C59.6817 74.5183 60.4041 74.1851 60.6528 73.515C60.9015 72.8449 60.5821 72.0912 59.9398 71.8317C59.2974 71.5723 58.575 71.9055 58.3263 72.5756C58.0776 73.2457 58.397 73.9994 59.0393 74.2589Z" fill="#372779"/>
<path opacity="0.4" d="M70.2204 63.4128C69.8786 63.2751 69.4944 63.4521 69.3612 63.8087C69.2292 64.1653 69.3989 64.5661 69.7407 64.7051C70.0825 64.8428 70.4667 64.6657 70.5999 64.3091C70.7331 63.9526 70.5622 63.5517 70.2204 63.4128Z" fill="#372779"/>
<path opacity="0.4" d="M70.7048 60.7937C70.4714 60.6991 70.2074 60.8208 70.1167 61.0642C70.0259 61.3089 70.1426 61.5831 70.376 61.6778C70.6093 61.7725 70.8733 61.6507 70.9641 61.4073C71.056 61.1638 70.9393 60.8884 70.7048 60.7937Z" fill="#372779"/>
<path opacity="0.4" d="M64.6222 64.1618C64.8874 63.4486 64.5468 62.6457 63.8632 62.3703C63.1796 62.0936 62.41 62.449 62.146 63.1621C61.8809 63.8753 62.2215 64.6782 62.905 64.9536C63.5886 65.2302 64.357 64.8761 64.6222 64.1618Z" fill="#372779"/>
<path opacity="0.4" d="M71.003 57.6696C70.8851 57.9892 71.036 58.3483 71.3424 58.4712C71.6488 58.5942 71.9918 58.4368 72.1108 58.1171C72.2299 57.7974 72.0778 57.4384 71.7714 57.3154C71.465 57.1925 71.122 57.3511 71.003 57.6696Z" fill="#372779"/>
<path opacity="0.4" d="M74.508 49.2349C74.6884 49.3075 74.8899 49.214 74.9594 49.0271C75.029 48.839 74.9394 48.6288 74.7602 48.555C74.5799 48.4824 74.3784 48.5759 74.3077 48.7628C74.2381 48.9509 74.3277 49.1612 74.508 49.2349Z" fill="#372779"/>
<path opacity="0.4" d="M72.2299 55.6248C72.8781 55.8867 73.6065 55.5511 73.8575 54.8748C74.1085 54.1985 73.7868 53.4387 73.1386 53.1768C72.4904 52.9149 71.762 53.2505 71.511 53.9268C71.2599 54.6031 71.5817 55.3629 72.2299 55.6248Z" fill="#372779"/>
<path opacity="0.4" d="M72.0943 58.1111C72.2758 57.6229 72.0425 57.0745 71.5746 56.8852C71.1067 56.6958 70.581 56.9393 70.3995 57.4274C70.218 57.9156 70.4502 58.4639 70.9193 58.6533C71.3872 58.8414 71.9128 58.5992 72.0943 58.1111Z" fill="#372779"/>
<path opacity="0.4" d="M73.3059 57.2713C73.069 57.9095 73.3731 58.6275 73.9848 58.8747C74.5964 59.1218 75.2847 58.8046 75.5216 58.1664C75.7585 57.5283 75.4544 56.8102 74.8428 56.5631C74.2299 56.3147 73.5428 56.632 73.3059 57.2713Z" fill="#372779"/>
<path opacity="0.4" d="M75.0962 54.163C74.9771 54.4827 75.1292 54.8417 75.4356 54.9647C75.742 55.0876 76.0862 54.9302 76.204 54.6106C76.3219 54.2909 76.171 53.9318 75.8646 53.8089C75.5582 53.6847 75.214 53.8433 75.0962 54.163Z" fill="#372779"/>
<path opacity="0.4" d="M72.7696 60.0257C72.6082 59.9605 72.4255 60.0441 72.363 60.2138C72.3006 60.3822 72.3807 60.5728 72.5433 60.638C72.7048 60.7031 72.8875 60.6195 72.95 60.4499C73.0124 60.2814 72.9323 60.0908 72.7696 60.0257Z" fill="#372779"/>
<path opacity="0.4" d="M70.1992 61.0976C70.7036 61.3017 71.2693 61.0398 71.465 60.5148C71.6594 59.9885 71.4096 59.3983 70.9063 59.1942C70.4019 58.9901 69.8362 59.252 69.6405 59.777C69.4449 60.3033 69.6947 60.8947 70.1992 61.0976Z" fill="#372779"/>
<path opacity="0.4" d="M71.9623 63.4129C72.1084 63.0182 71.921 62.5756 71.5427 62.4231C71.1644 62.2707 70.7401 62.4662 70.594 62.8609C70.4478 63.2555 70.6352 63.6982 71.0135 63.8506C71.3918 64.0031 71.8161 63.8076 71.9623 63.4129Z" fill="#372779"/>
<path opacity="0.4" d="M74.3855 62.4378C74.587 61.8932 74.3277 61.2808 73.8068 61.0706C73.2847 60.8603 72.6978 61.1308 72.4962 61.6743C72.2947 62.219 72.554 62.8313 73.0749 63.0416C73.597 63.2518 74.1839 62.9813 74.3855 62.4378Z" fill="#372779"/>
<path opacity="0.4" d="M67.0701 59.8349C66.9687 60.1066 67.0984 60.4128 67.36 60.5185C67.6205 60.6243 67.9139 60.489 68.0153 60.2161C68.1166 59.9443 67.987 59.6382 67.7254 59.5324C67.4649 59.4267 67.1714 59.5619 67.0701 59.8349Z" fill="#372779"/>
<path opacity="0.4" d="M74.7968 60.2184C74.7202 60.425 74.818 60.6574 75.016 60.7373C75.214 60.8172 75.4368 60.7152 75.5134 60.5086C75.59 60.302 75.4922 60.0697 75.2942 59.9897C75.0962 59.9098 74.8734 60.0119 74.7968 60.2184Z" fill="#372779"/>
<path opacity="0.4" d="M76.6743 57.3808C77.1598 57.5775 77.7067 57.3254 77.8953 56.8176C78.0838 56.311 77.8422 55.7405 77.3555 55.5438C76.8699 55.3471 76.3231 55.5991 76.1345 56.1069C75.9471 56.6147 76.1887 57.184 76.6743 57.3808Z" fill="#372779"/>
<path opacity="0.4" d="M78.8676 64.5993C79.0561 64.0928 78.8145 63.5223 78.3278 63.3268C77.8422 63.13 77.2953 63.3821 77.108 63.8899C76.9194 64.3965 77.161 64.967 77.6477 65.1637C78.1321 65.358 78.679 65.1059 78.8676 64.5993Z" fill="#372779"/>
<path opacity="0.4" d="M80.7368 46.4782C80.4999 47.1163 80.804 47.8344 81.4156 48.0815C82.0273 48.3287 82.7156 48.0114 82.9525 47.3733C83.1894 46.7352 82.8853 46.0171 82.2736 45.77C81.662 45.5228 80.9737 45.84 80.7368 46.4782Z" fill="#372779"/>
<path opacity="0.4" d="M84.1063 46.5877C84.5919 46.7844 85.1387 46.5323 85.3273 46.0245C85.5159 45.518 85.2743 44.9474 84.7875 44.7507C84.3019 44.554 83.7551 44.806 83.5665 45.3138C83.3791 45.8217 83.6207 46.3922 84.1063 46.5877Z" fill="#372779"/>
<path opacity="0.4" d="M83.893 49.0822C83.7751 49.4019 83.926 49.7597 84.2324 49.8839C84.5388 50.008 84.883 49.8482 85.0008 49.5297C85.1199 49.2101 84.9678 48.851 84.6614 48.7281C84.355 48.6039 84.0108 48.7625 83.893 49.0822Z" fill="#372779"/>
<path opacity="0.4" d="M82.3762 48.1528C82.5648 47.6463 82.3231 47.0757 81.8364 46.879C81.3508 46.6823 80.804 46.9343 80.6154 47.4421C80.4268 47.9487 80.6684 48.5192 81.1552 48.716C81.6419 48.9115 82.1888 48.6594 82.3762 48.1528Z" fill="#372779"/>
<path opacity="0.4" d="M78.1628 53.3687C78.6307 53.5581 79.1564 53.3146 79.3379 52.8265C79.5194 52.3384 79.2872 51.79 78.8181 51.6006C78.3502 51.4113 77.8246 51.6547 77.6431 52.1429C77.4628 52.631 77.6949 53.1806 78.1628 53.3687Z" fill="#372779"/>
<path opacity="0.4" d="M75.1138 52.8017C75.564 52.9837 76.0697 52.7501 76.2441 52.2804C76.29 52.1574 76.3065 52.0295 76.3006 51.9054C76.3643 51.9164 76.4291 51.882 76.4539 51.8168C76.4822 51.7418 76.4456 51.657 76.3737 51.6287C76.3301 51.6115 76.2853 51.6201 76.2488 51.6447C76.1663 51.4049 75.9919 51.2008 75.7455 51.1012C75.2953 50.9192 74.7897 51.1529 74.6153 51.6226C74.4397 52.0922 74.6636 52.6197 75.1138 52.8017Z" fill="#372779"/>
<path opacity="0.4" d="M73.5793 65.3176C73.7396 64.886 73.5334 64.4003 73.1197 64.2331C72.706 64.0659 72.2405 64.2811 72.0802 64.7126C71.9199 65.1442 72.1261 65.6299 72.5398 65.7971C72.9535 65.9631 73.419 65.7492 73.5793 65.3176Z" fill="#372779"/>
<path opacity="0.4" d="M74.4856 67.521C74.6459 67.0894 74.4397 66.6037 74.026 66.4365C73.6123 66.2693 73.1468 66.4832 72.9865 66.916C72.8262 67.3476 73.0325 67.8333 73.4461 68.0005C73.8598 68.1665 74.3254 67.9526 74.4856 67.521Z" fill="#372779"/>
<path opacity="0.4" d="M77.8894 66.6281C77.4757 66.4609 77.0102 66.6761 76.8499 67.1077C76.6896 67.5392 76.8958 68.0249 77.3095 68.1921C77.7232 68.3594 78.1887 68.1442 78.349 67.7126C78.5093 67.281 78.303 66.7953 77.8894 66.6281Z" fill="#372779"/>
<path opacity="0.4" d="M67.5745 63.8296C68.0059 64.0042 68.4926 63.7805 68.6588 63.3292C68.8262 62.878 68.6117 62.3714 68.1791 62.1968C67.7478 62.0222 67.261 62.246 67.0948 62.6972C66.9275 63.1485 67.142 63.655 67.5745 63.8296Z" fill="#372779"/>
<path opacity="0.4" d="M75.6783 65.6175C75.3366 65.4798 74.9523 65.6569 74.8192 66.0134C74.6872 66.37 74.8569 66.7708 75.1987 66.9098C75.5404 67.0475 75.9247 66.8704 76.0578 66.5139C76.191 66.1573 76.0213 65.7565 75.6783 65.6175Z" fill="#372779"/>
<path opacity="0.4" d="M76.1639 62.9986C75.9294 62.9039 75.6666 63.0256 75.5758 63.2691C75.4851 63.5125 75.6017 63.7879 75.8351 63.8826C76.0696 63.9773 76.3325 63.8556 76.4232 63.6121C76.514 63.3674 76.3973 63.0932 76.1639 62.9986Z" fill="#372779"/>
<path opacity="0.4" d="M70.0801 66.3664C70.3453 65.6532 70.0047 64.8503 69.3211 64.5749C68.6375 64.2982 67.8679 64.6536 67.6028 65.3667C67.3376 66.0799 67.6782 66.8828 68.3618 67.1582C69.0465 67.4348 69.8149 67.0807 70.0801 66.3664Z" fill="#372779"/>
<path opacity="0.4" d="M59.5449 76.2926C59.7335 75.786 59.4919 75.2155 59.0051 75.02C58.5196 74.8233 57.9727 75.0753 57.7841 75.5831C57.5956 76.0897 57.8372 76.6602 58.3239 76.857C58.8095 77.0512 59.3563 76.8004 59.5449 76.2926Z" fill="#372779"/>
<path opacity="0.4" d="M76.461 59.8743C76.3431 60.194 76.494 60.5518 76.8004 60.6759C77.1068 60.7989 77.4509 60.6403 77.5688 60.3218C77.6878 60.0021 77.5358 59.6431 77.2294 59.5202C76.9229 59.3972 76.58 59.5558 76.461 59.8743Z" fill="#372779"/>
<path opacity="0.4" d="M66.0813 66.2373C66.1992 65.9177 66.0483 65.5586 65.7419 65.4357C65.4354 65.3127 65.0913 65.4713 64.9734 65.7898C64.8556 66.1095 65.0064 66.4685 65.3129 66.5915C65.6193 66.7144 65.9623 66.557 66.0813 66.2373Z" fill="#372779"/>
<path opacity="0.4" d="M68.9334 56.8334C69.0512 56.5137 68.9004 56.1547 68.5939 56.0317C68.2875 55.9088 67.9434 56.0674 67.8255 56.3859C67.7065 56.7055 67.8597 57.0646 68.1649 57.1875C68.4714 57.3117 68.8143 57.1531 68.9334 56.8334Z" fill="#372779"/>
<path opacity="0.4" d="M71.3047 45.5756C71.9529 45.8375 72.6812 45.5019 72.9323 44.8256C73.1833 44.1493 72.8616 43.3895 72.2133 43.1276C71.5651 42.8657 70.8368 43.2013 70.5857 43.8776C70.3347 44.5539 70.6565 45.3137 71.3047 45.5756Z" fill="#372779"/>
<path opacity="0.4" d="M71.1692 48.0619C71.3507 47.5737 71.1173 47.0241 70.6494 46.836C70.1815 46.6466 69.6559 46.8901 69.4744 47.3782C69.2929 47.8664 69.5262 48.4147 69.9941 48.6041C70.462 48.7922 70.9877 48.55 71.1692 48.0619Z" fill="#372779"/>
<path opacity="0.4" d="M71.8445 49.9764C71.683 49.9112 71.5003 49.9948 71.4379 50.1633C71.3754 50.3317 71.4555 50.5223 71.6182 50.5875C71.7796 50.6526 71.9623 50.569 72.0248 50.3993C72.0872 50.2321 72.0071 50.0415 71.8445 49.9764Z" fill="#372779"/>
<path opacity="0.4" d="M69.274 51.0485C69.7784 51.2514 70.3441 50.9907 70.5398 50.4645C70.7354 49.9382 70.4844 49.348 69.9811 49.1439C69.4767 48.9398 68.911 49.2017 68.7154 49.7267C68.5197 50.2542 68.7696 50.8456 69.274 51.0485Z" fill="#372779"/>
<path opacity="0.4" d="M73.8716 50.1692C73.795 50.3758 73.8928 50.6082 74.0908 50.6881C74.2888 50.768 74.5115 50.666 74.5881 50.4594C74.6648 50.2528 74.5669 50.0205 74.3689 49.9405C74.1709 49.8606 73.9482 49.9627 73.8716 50.1692Z" fill="#372779"/>
<path opacity="0.4" d="M75.5357 49.8251C75.4179 50.1448 75.5687 50.5038 75.8751 50.6268C76.1816 50.7497 76.5245 50.5924 76.6436 50.2727C76.7614 49.953 76.6106 49.594 76.3042 49.471C75.9977 49.3468 75.6548 49.5054 75.5357 49.8251Z" fill="#372779"/>
<path opacity="0.4" d="M75.3991 46.8103C75.5747 46.3357 75.3496 45.8021 74.8946 45.6176C74.4397 45.4344 73.9282 45.6693 73.7514 46.1451C73.5758 46.6197 73.8009 47.1534 74.257 47.3378C74.7108 47.521 75.2235 47.2849 75.3991 46.8103Z" fill="#372779"/>
<path opacity="0.4" d="M75.7338 71.2194C76.382 71.4813 77.1103 71.1457 77.3614 70.4694C77.6124 69.7931 77.2907 69.0333 76.6424 68.7714C75.9942 68.5095 75.2659 68.8451 75.0148 69.5214C74.765 70.1977 75.0867 70.9575 75.7338 71.2194Z" fill="#372779"/>
<path opacity="0.4" d="M76.6271 50.2664C76.8086 49.7783 76.5753 49.2299 76.1074 49.0406C75.6395 48.8512 75.1138 49.0947 74.9323 49.5828C74.7508 50.0709 74.983 50.6193 75.4521 50.8087C75.92 50.9968 76.4456 50.7546 76.6271 50.2664Z" fill="#372779"/>
<path opacity="0.4" d="M77.3613 48.1036C77.5428 47.6155 77.3095 47.0671 76.8416 46.8777C76.3737 46.6884 75.848 46.9318 75.6665 47.42C75.485 47.9081 75.7184 48.4565 76.1863 48.6458C76.6542 48.834 77.1798 48.5917 77.3613 48.1036Z" fill="#372779"/>
<path opacity="0.4" d="M82.6659 45.7598C82.701 45.0763 82.1982 44.4925 81.543 44.456C80.8878 44.4194 80.3283 44.9439 80.2933 45.6275C80.2582 46.311 80.761 46.8947 81.4162 46.9313C82.0714 46.9678 82.6309 46.4434 82.6659 45.7598Z" fill="#372779"/>
<path opacity="0.4" d="M77.3024 52.1808C77.141 52.1156 76.9583 52.1993 76.8958 52.3689C76.8334 52.5374 76.9135 52.728 77.0762 52.7931C77.2376 52.8583 77.4203 52.7747 77.4828 52.6062C77.5452 52.4366 77.4651 52.246 77.3024 52.1808Z" fill="#372779"/>
<path opacity="0.4" d="M74.732 53.2531C75.2364 53.4572 75.8021 53.1953 75.9978 52.6703C76.1922 52.144 75.9424 51.5539 75.4391 51.3497C74.9347 51.1456 74.369 51.4075 74.1733 51.9326C73.9777 52.4588 74.2276 53.0502 74.732 53.2531Z" fill="#372779"/>
<path opacity="0.4" d="M79.3295 52.374C79.2529 52.5805 79.3508 52.8129 79.5488 52.8928C79.7468 52.9728 79.9695 52.8707 80.0461 52.6641C80.1227 52.4576 80.0249 52.2252 79.8269 52.1453C79.6289 52.0641 79.4062 52.1674 79.3295 52.374Z" fill="#372779"/>
<path opacity="0.4" d="M76.4362 43.9146C76.1993 44.5527 76.5033 45.2708 77.115 45.5179C77.7267 45.7651 78.415 45.4479 78.6519 44.8097C78.8888 44.1716 78.5847 43.4535 77.973 43.2064C77.3613 42.9592 76.6731 43.2764 76.4362 43.9146Z" fill="#372779"/>
<path opacity="0.4" d="M80.9937 52.0296C80.8758 52.3493 81.0267 52.7083 81.3331 52.8313C81.6396 52.9542 81.9837 52.7968 82.1016 52.4771C82.2194 52.1575 82.0686 51.7984 81.7621 51.6755C81.4557 51.5513 81.1127 51.7099 80.9937 52.0296Z" fill="#372779"/>
<path opacity="0.4" d="M73.4662 48.9888C73.584 48.6692 73.4332 48.3101 73.1267 48.1872C72.8203 48.0642 72.4762 48.2216 72.3583 48.5413C72.2393 48.861 72.3925 49.22 72.6977 49.343C73.0042 49.4671 73.3471 49.3085 73.4662 48.9888Z" fill="#372779"/>
<path opacity="0.4" d="M79.966 51.4382C80.1463 51.5107 80.3479 51.4173 80.4186 51.2304C80.4881 51.0423 80.3985 50.832 80.2194 50.7582C80.0391 50.6857 79.8376 50.7791 79.768 50.966C79.6961 51.1554 79.7857 51.3656 79.966 51.4382Z" fill="#372779"/>
<path opacity="0.4" d="M59.2797 78.9865C59.5202 79.0836 59.7912 78.9594 59.8843 78.7074C59.9774 78.4566 59.8584 78.1738 59.6168 78.0766C59.3764 77.9795 59.1053 78.1037 59.0122 78.3557C58.9191 78.6066 59.0381 78.8894 59.2797 78.9865Z" fill="#372779"/>
<path opacity="0.4" d="M61.1949 81.0339C60.7671 80.8605 60.2851 81.083 60.1189 81.5294C59.9527 81.9757 60.166 82.4786 60.5939 82.652C61.0217 82.8253 61.5037 82.6028 61.6699 82.1565C61.8361 81.7089 61.6227 81.2072 61.1949 81.0339Z" fill="#372779"/>
<path opacity="0.4" d="M68.6305 90.7337C68.0683 90.5062 67.4366 90.7976 67.2186 91.3841C67.0006 91.9706 67.2799 92.6297 67.8421 92.8571C68.4042 93.0846 69.036 92.7932 69.254 92.2067C69.472 91.6202 69.1927 90.9599 68.6305 90.7337Z" fill="#372779"/>
<path opacity="0.4" d="M71.7301 93.4965C71.168 93.2691 70.5362 93.5605 70.3182 94.147C70.1002 94.7335 70.3795 95.3925 70.9417 95.62C71.5038 95.8474 72.1356 95.556 72.3536 94.9695C72.5716 94.383 72.2923 93.724 71.7301 93.4965Z" fill="#372779"/>
<path opacity="0.4" d="M78.6201 96.5115C78.0579 96.2841 77.4262 96.5755 77.2082 97.162C76.9901 97.7485 77.2694 98.4075 77.8316 98.635C78.3938 98.8625 79.0255 98.571 79.2436 97.9845C79.4616 97.398 79.1823 96.739 78.6201 96.5115Z" fill="#372779"/>
<path opacity="0.4" d="M60.8519 88.1147C60.0753 87.8012 59.2031 88.2032 58.9026 89.0135C58.602 89.8238 58.9874 90.7337 59.7641 91.0472C60.5408 91.3607 61.4129 90.9587 61.7135 90.1484C62.014 89.3393 61.6286 88.4282 60.8519 88.1147Z" fill="#372779"/>
<path opacity="0.4" d="M60.5337 84.7692C60.4194 85.0766 60.5655 85.4221 60.8602 85.5413C61.1548 85.6606 61.486 85.5081 61.5991 85.2008C61.7135 84.8934 61.5673 84.5479 61.2727 84.4298C60.978 84.3093 60.6469 84.4618 60.5337 84.7692Z" fill="#372779"/>
<path opacity="0.4" d="M63.4577 85.3114C63.037 85.1712 62.5868 85.4122 62.4524 85.8511C62.3181 86.2901 62.5491 86.7598 62.9698 86.9C63.3906 87.0401 63.8408 86.7991 63.9751 86.3602C64.1107 85.9225 63.8785 85.4528 63.4577 85.3114Z" fill="#372779"/>
<path opacity="0.4" d="M58.8401 81.3718C59.0888 80.7017 58.7694 79.948 58.1271 79.6885C57.4848 79.4291 56.7623 79.7623 56.5136 80.4324C56.2649 81.1025 56.5843 81.8562 57.2267 82.1157C57.869 82.3751 58.5914 82.0419 58.8401 81.3718Z" fill="#372779"/>
<path opacity="0.4" d="M64.9062 90.8566C64.3971 90.6513 63.8255 90.9144 63.6287 91.4456C63.4318 91.9768 63.684 92.5731 64.1932 92.7784C64.7023 92.9838 65.2739 92.7207 65.4708 92.1895C65.6676 91.6595 65.4154 91.062 64.9062 90.8566Z" fill="#372779"/>
<path opacity="0.4" d="M65.2351 89.0714C64.8874 88.9313 64.4961 89.1108 64.3606 89.4747C64.2262 89.8375 64.3983 90.2457 64.7471 90.3871C65.0948 90.5272 65.4861 90.3477 65.6216 89.9838C65.756 89.6198 65.5827 89.2116 65.2351 89.0714Z" fill="#372779"/>
<path opacity="0.4" d="M58.4206 83.7018C57.4035 83.2911 56.2591 83.8186 55.8654 84.8797C55.4718 85.9408 55.9774 87.1347 56.9945 87.5454C58.0116 87.9561 59.156 87.4286 59.5496 86.3675C59.9433 85.3064 59.4377 84.1137 58.4206 83.7018Z" fill="#372779"/>
</g>
<path d="M89.7929 101.474L62.8767 90.6035C60.3663 89.5891 59.1147 86.6344 60.0858 84.0142L73.1927 48.6914C74.165 46.0725 76.9983 44.7667 79.5087 45.7798L106.425 56.6504C108.935 57.6648 110.187 60.6206 109.216 63.2396L96.1089 98.5624C95.1354 101.183 92.3033 102.488 89.7929 101.474ZM79.0679 46.9688C77.1846 46.2089 75.0608 47.1877 74.3312 49.1525L61.2232 84.4741C60.4936 86.4389 61.4329 88.6546 63.3163 89.4157L90.2325 100.287C92.1159 101.049 94.2397 100.069 94.9692 98.1038L108.076 62.781C108.804 60.8161 107.866 58.6005 105.983 57.8394L79.0679 46.9688Z" fill="#DDECFF"/>
</g>
<defs>
<filter id="filter0_d" x="0" y="0.649902" width="173" height="118.7" filterUnits="userSpaceOnUse" color-interpolation-filters="sRGB">
<feFlood flood-opacity="0" result="BackgroundImageFix"/>
<feColorMatrix in="SourceAlpha" type="matrix" values="0 0 0 0 0 0 0 0 0 0 0 0 0 0 0 0 0 0 127 0" result="hardAlpha"/>
<feOffset dy="4"/>
<feGaussianBlur stdDeviation="2"/>
<feComposite in2="hardAlpha" operator="out"/>
<feColorMatrix type="matrix" values="0 0 0 0 0 0 0 0 0 0 0 0 0 0 0 0 0 0 0.25 0"/>
<feBlend mode="normal" in2="BackgroundImageFix" result="effect1_dropShadow"/>
<feBlend mode="normal" in="SourceGraphic" in2="effect1_dropShadow" result="shape"/>
</filter>
<linearGradient id="paint0_linear" x1="48.9263" y1="46.4682" x2="31.9914" y2="46.4682" gradientUnits="userSpaceOnUse">
<stop stop-color="#99C6FF"/>
<stop offset="1" stop-color="#DDECFF"/>
</linearGradient>
<linearGradient id="paint1_linear" x1="88.0572" y1="46.4682" x2="45.1885" y2="46.4682" gradientUnits="userSpaceOnUse">
<stop stop-color="#46C89C"/>
<stop offset="1" stop-color="#33A47E"/>
</linearGradient>
<linearGradient id="paint2_linear" x1="49.2798" y1="16.6303" x2="57.8234" y2="16.6303" gradientUnits="userSpaceOnUse">
<stop stop-color="#99C6FF"/>
<stop offset="1" stop-color="#DDECFF"/>
</linearGradient>
<linearGradient id="paint3_linear" x1="63.7516" y1="16.6303" x2="72.2953" y2="16.6303" gradientUnits="userSpaceOnUse">
<stop stop-color="#99C6FF"/>
<stop offset="1" stop-color="#DDECFF"/>
</linearGradient>
<linearGradient id="paint4_linear" x1="78.2233" y1="16.6303" x2="86.7671" y2="16.6303" gradientUnits="userSpaceOnUse">
<stop stop-color="#99C6FF"/>
<stop offset="1" stop-color="#DDECFF"/>
</linearGradient>
<linearGradient id="paint5_linear" x1="66.2703" y1="10.3845" x2="84.7074" y2="10.3845" gradientUnits="userSpaceOnUse">
<stop stop-color="#6042CE"/>
<stop offset="1" stop-color="#30226D"/>
</linearGradient>
<linearGradient id="paint6_linear" x1="51.7985" y1="10.3845" x2="70.2357" y2="10.3845" gradientUnits="userSpaceOnUse">
<stop stop-color="#6042CE"/>
<stop offset="1" stop-color="#30226D"/>
</linearGradient>
<linearGradient id="paint7_linear" x1="37.3266" y1="10.3845" x2="55.7639" y2="10.3845" gradientUnits="userSpaceOnUse">
<stop stop-color="#6042CE"/>
<stop offset="1" stop-color="#30226D"/>
</linearGradient>
<linearGradient id="paint8_linear" x1="51.7985" y1="33.9189" x2="82.3881" y2="33.9189" gradientUnits="userSpaceOnUse">
<stop stop-color="#99C6FF"/>
<stop offset="1" stop-color="#DDECFF"/>
</linearGradient>
<linearGradient id="paint9_linear" x1="51.7985" y1="41.7069" x2="82.3881" y2="41.7069" gradientUnits="userSpaceOnUse">
<stop stop-color="#99C6FF"/>
<stop offset="1" stop-color="#DDECFF"/>
</linearGradient>
<linearGradient id="paint10_linear" x1="130.491" y1="73.547" x2="118.154" y2="68.8655" gradientUnits="userSpaceOnUse">
<stop stop-color="#FF7033"/>
<stop offset="1" stop-color="#DE243C"/>
</linearGradient>
<linearGradient id="paint11_linear" x1="104.696" y1="104.325" x2="117.033" y2="109.007" gradientUnits="userSpaceOnUse">
<stop stop-color="#46C89C"/>
<stop offset="1" stop-color="#33A47E"/>
</linearGradient>
<linearGradient id="paint12_linear" x1="106.243" y1="100.252" x2="118.579" y2="104.933" gradientUnits="userSpaceOnUse">
<stop stop-color="#30226D"/>
<stop offset="1" stop-color="#6042CE"/>
</linearGradient>
<linearGradient id="paint13_linear" x1="137.04" y1="30.0851" x2="142.1" y2="32.0054" gradientUnits="userSpaceOnUse">
<stop stop-color="#30226D"/>
<stop offset="1" stop-color="#6042CE"/>
</linearGradient>
<linearGradient id="paint14_linear" x1="9.57648" y1="46.9367" x2="17.5381" y2="46.9367" gradientUnits="userSpaceOnUse">
<stop stop-color="#4492FE"/>
<stop offset="1" stop-color="#4C59DD"/>
</linearGradient>
<linearGradient id="paint15_linear" x1="20.1143" y1="78.2183" x2="4.23261" y2="78.2183" gradientUnits="userSpaceOnUse">
<stop stop-color="#4492FE"/>
<stop offset="1" stop-color="#4C59DD"/>
</linearGradient>
<linearGradient id="paint16_linear" x1="4.00039" y1="18.9013" x2="20.3465" y2="18.9013" gradientUnits="userSpaceOnUse">
<stop stop-color="#FD7626"/>
<stop offset="0.2527" stop-color="#FA951B"/>
<stop offset="1" stop-color="#F6B30F"/>
</linearGradient>
<linearGradient id="paint17_linear" x1="126.442" y1="10.985" x2="135.831" y2="10.985" gradientUnits="userSpaceOnUse">
<stop stop-color="#4492FE"/>
<stop offset="1" stop-color="#4C59DD"/>
</linearGradient>
<linearGradient id="paint18_linear" x1="149.187" y1="10.985" x2="169" y2="10.985" gradientUnits="userSpaceOnUse">
<stop stop-color="#FF7033"/>
<stop offset="1" stop-color="#DE243C"/>
</linearGradient>
<linearGradient id="paint19_linear" x1="150.832" y1="45.3874" x2="167.355" y2="45.3874" gradientUnits="userSpaceOnUse">
<stop stop-color="#FD7626"/>
<stop offset="0.2527" stop-color="#FA951B"/>
<stop offset="1" stop-color="#F6B30F"/>
</linearGradient>
<linearGradient id="paint20_linear" x1="152.783" y1="79.845" x2="165.404" y2="79.845" gradientUnits="userSpaceOnUse">
<stop stop-color="#4492FE"/>
<stop offset="1" stop-color="#4C59DD"/>
</linearGradient>
<linearGradient id="paint21_linear" x1="87.4594" y1="46.0076" x2="69.8419" y2="39.4709" gradientUnits="userSpaceOnUse">
<stop stop-color="#30226D"/>
<stop offset="1" stop-color="#6042CE"/>
</linearGradient>
<linearGradient id="paint22_linear" x1="60.8616" y1="63.6759" x2="107.562" y2="81.0037" gradientUnits="userSpaceOnUse">
<stop stop-color="#392982"/>
<stop offset="1" stop-color="#6042CE"/>
</linearGradient>
<linearGradient id="paint23_linear" x1="118.687" y1="51.0261" x2="71.9845" y2="33.6978" gradientUnits="userSpaceOnUse">
<stop stop-color="#6042CE"/>
<stop offset="0.7043" stop-color="#30226D"/>
</linearGradient>
<linearGradient id="paint24_linear" x1="103.1" y1="43.1711" x2="98.3846" y2="41.4214" gradientUnits="userSpaceOnUse">
<stop stop-color="#FA7728"/>
<stop offset="1" stop-color="#C15541"/>
</linearGradient>
<linearGradient id="paint25_linear" x1="90.0932" y1="38.9093" x2="86.1176" y2="37.4342" gradientUnits="userSpaceOnUse">
<stop stop-color="#FA7728"/>
<stop offset="1" stop-color="#C15541"/>
</linearGradient>
</defs>
</svg>
